# xmcd
#
# Track frame offsets: 
#        150
#        38660
#        76207
#        100254
#
# Disc length: 1784 seconds
#
# Revision: 0
# Processed by: cddbd v1.5.2PL0 Copyright (c) Steve Scherf et al.
# Submitted via: ExactAudioCopy v1.3
#
DISCID=2206f604
DTITLE=Buddy Guy, Ronnie Wood and Jonny Lang - Crossroads Guitar Festiva
DTITLE=l 2010
DYEAR=2010
DGENRE=Blues
TTITLE0=Forty Days and Forty Nights
TTITLE1=Five Long Years
TTITLE2=Let Me Love You, Baby
TTITLE3=Miss You
EXTD=
EXTT0=
EXTT1=
EXTT2=
EXTT3=
PLAYORDER=
